<svg width="138" height="22" viewBox="0 0 138 22" fill="none" xmlns="http://www.w3.org/2000/svg">
<path d="M45.2109 19H49.0781V14.0312H51.7031C55.3672 14.0312 57.6562 11.8594 57.6562 8.53906C57.6562 5.25 55.4141 3 51.8203 3H45.2109V19ZM49.0781 10.9844V6.11719H50.9844C52.7188 6.11719 53.6484 7.05469 53.6484 8.53906C53.6484 10.0156 52.7188 10.9844 50.9844 10.9844H49.0781ZM64.9355 19.2266C68.084 19.2266 70.1543 17.7031 70.5918 15.3437L67.084 15.2422C66.7871 16.0391 66.0059 16.4687 65.0059 16.4687C63.5371 16.4687 62.6309 15.4922 62.6309 14.0234V13.9219H70.6309V12.9687C70.6309 9.01562 68.2246 6.84375 64.8184 6.84375C61.1934 6.84375 58.8652 9.32812 58.8652 13.0469C58.8652 16.8906 61.1621 19.2266 64.9355 19.2266ZM62.6309 11.7031C62.6855 10.5078 63.6309 9.60156 64.8965 9.60156C66.1543 9.60156 67.0605 10.4766 67.0762 11.7031H62.6309ZM79.3555 7H77.1914V4.125H73.3711V7H71.7852V9.8125H73.3711V15.6484C73.3477 18.0781 74.9258 19.2969 77.6211 19.1719C78.543 19.125 79.207 18.9375 79.5742 18.8281L78.9961 16.0703C78.832 16.1094 78.4492 16.1875 78.1602 16.1875C77.543 16.1875 77.1914 15.9375 77.1914 15.2266V9.8125H79.3555V7ZM95.8281 8.79687C95.4375 4.96875 92.5859 2.78125 88.7188 2.78125C84.4531 2.78125 81.1328 5.71094 81.1328 11C81.1328 16.2656 84.375 19.2187 88.7188 19.2187C93.1094 19.2187 95.5391 16.2344 95.8281 13.3984L91.9219 13.375C91.6484 14.9141 90.4922 15.8281 88.7969 15.8281C86.5156 15.8281 85.0781 14.1797 85.0781 11C85.0781 7.94531 86.4844 6.17187 88.8203 6.17187C90.5781 6.17187 91.7266 7.19531 91.9219 8.79687H95.8281ZM103.643 19.2266C107.416 19.2266 109.705 16.7344 109.705 13.0391C109.705 9.33594 107.416 6.84375 103.643 6.84375C99.8691 6.84375 97.5801 9.33594 97.5801 13.0391C97.5801 16.7344 99.8691 19.2266 103.643 19.2266ZM103.666 16.3437C102.252 16.3437 101.471 15 101.471 13.0156C101.471 11.0234 102.252 9.67187 103.666 9.67187C105.033 9.67187 105.814 11.0234 105.814 13.0156C105.814 15 105.033 16.3437 103.666 16.3437ZM117.264 19.2266C121.037 19.2266 123.326 16.7344 123.326 13.0391C123.326 9.33594 121.037 6.84375 117.264 6.84375C113.49 6.84375 111.201 9.33594 111.201 13.0391C111.201 16.7344 113.49 19.2266 117.264 19.2266ZM117.287 16.3437C115.873 16.3437 115.092 15 115.092 13.0156C115.092 11.0234 115.873 9.67187 117.287 9.67187C118.654 9.67187 119.436 11.0234 119.436 13.0156C119.436 15 118.654 16.3437 117.287 16.3437ZM125.283 19H129.104V15.3984L129.877 14.4609L132.736 19H137.15L132.721 12.2266L136.979 7H132.65L129.275 11.2969H129.104V3H125.283V19Z" fill="#111419"/>
<path d="M35.4316 15.6324C35.4421 16.4129 35.2412 17.1814 34.8507 17.855C34.4603 18.5285 33.8951 19.0815 33.2162 19.454C32.5326 19.8242 31.7585 19.9892 30.9852 19.9296C30.2119 19.8699 29.4715 19.5881 28.8515 19.1174C28.3723 18.746 27.9897 18.2624 27.7368 17.7083C27.4838 17.1542 27.368 16.5462 27.3994 15.9368C27.4106 15.8361 27.3854 15.7346 27.3284 15.6512C27.2713 15.5677 27.1864 15.5079 27.0891 15.4828C26.6165 15.3347 26.1036 15.1457 25.5665 14.9444C24.6021 14.5396 23.5972 14.2416 22.5693 14.0555C21.1169 13.8661 19.6509 13.8054 18.1881 13.874C15.3821 14.0207 12.6186 14.6297 10.007 15.677C9.93467 15.7058 9.87109 15.7534 9.8227 15.8149C9.77432 15.8765 9.74283 15.9498 9.73141 16.0276C9.64203 16.6806 9.41375 17.3064 9.06225 17.8618C8.71075 18.4172 8.24437 18.8892 7.69518 19.2452C7.03491 19.668 6.27235 19.8993 5.49078 19.914C4.73204 19.9244 3.98533 19.7219 3.33363 19.3292C2.69115 18.9834 2.15746 18.4625 1.79308 17.8257C1.4287 17.189 1.24821 16.4618 1.27208 15.7266C1.27893 15.0837 1.45361 14.454 1.77847 13.9012C2.10333 13.3483 2.56686 12.8919 3.12223 12.578C3.18921 12.5325 3.24345 12.4703 3.27972 12.3974C3.31599 12.3245 3.33306 12.2434 3.3293 12.1619C3.32836 12.0804 3.30582 12.0006 3.26404 11.9309C3.22226 11.8611 3.16275 11.8039 3.0917 11.7653C2.55114 11.3237 2.10533 10.7755 1.78146 10.154C1.4576 9.53259 1.26249 8.85099 1.20803 8.15082C1.19745 7.42072 1.37419 6.70029 1.72103 6.0597C2.06788 5.41911 2.57301 4.8802 3.18723 4.49544C3.80145 4.11069 4.50383 3.89321 5.22595 3.86418C5.94807 3.83516 6.66532 3.99558 7.30785 4.32982C7.43558 4.38454 7.55965 4.44757 7.6793 4.51852C8.23143 4.87444 8.70038 5.34737 9.0537 5.90454C9.40701 6.46171 9.63624 7.08982 9.72551 7.74536C9.73787 7.82212 9.76905 7.89453 9.81622 7.95599C9.86339 8.01744 9.92504 8.06599 9.99555 8.09719C11.257 8.59352 12.5549 8.9897 13.8773 9.28214C15.2944 9.61284 16.7395 9.80619 18.1929 9.85956C19.6542 9.9207 21.118 9.85021 22.5669 9.64893C23.8817 9.47509 25.1839 9.21475 26.4652 8.86955C26.5772 8.87046 26.6859 8.83169 26.7726 8.75998C26.8324 8.70561 26.8768 8.6361 26.9011 8.55861C26.9254 8.48113 26.9288 8.39849 26.911 8.31923C26.6145 7.14647 27.6692 5.45403 28.8353 4.55412C29.4483 4.07426 30.1863 3.78503 30.9592 3.72172C31.7384 3.66766 32.5168 3.83643 33.2055 4.2087C33.8923 4.58276 34.4636 5.1411 34.8565 5.82221C35.2494 6.50333 35.4486 7.28079 35.4322 8.06896C35.4203 8.80284 35.2075 9.51904 34.8172 10.1381C34.4472 10.7032 33.9792 11.196 33.4357 11.593C33.3713 11.6367 33.3193 11.6965 33.2844 11.7665C33.2496 11.8365 33.2331 11.9144 33.2367 11.9927C33.2439 12.0705 33.2711 12.1451 33.3156 12.2089C33.3602 12.2728 33.4205 12.3238 33.4906 12.3568C34.0299 12.6223 34.4874 13.0314 34.8137 13.54C35.0043 13.8503 35.1544 14.1842 35.2602 14.5334C35.3207 14.7096 35.3623 14.8917 35.3843 15.0769L35.4281 15.3751C35.3875 15.4567 35.4399 15.5344 35.4356 15.6242L35.4316 15.6324Z" fill="#FDCA40"/>
<path d="M35.9751 14.7637C35.9935 15.7096 35.7532 16.6422 35.2807 17.459C34.8082 18.2758 34.1218 18.945 33.2971 19.3929C32.4647 19.8463 31.5209 20.0484 30.5781 19.9754C29.6352 19.9023 28.7329 19.557 27.9787 18.9807C27.4278 18.5501 26.9797 17.9999 26.6676 17.3708C26.3556 16.7416 26.1875 16.0496 26.1759 15.346C25.7841 15.2185 25.3682 15.0583 24.932 14.898C24.0313 14.5179 23.0928 14.2365 22.1327 14.0586C20.7286 13.8752 19.3117 13.8118 17.8971 13.8693C16.5023 13.9301 15.1161 14.1225 13.7567 14.4439C12.5449 14.7009 11.3549 15.0532 10.1974 15.4977C10.0653 16.2351 9.78339 16.9368 9.36948 17.5587C8.95556 18.1805 8.41861 18.7089 7.79248 19.1106C7.00871 19.6416 6.09743 19.9486 5.1551 19.999C4.34254 20.0151 3.53833 19.831 2.81191 19.4628L2.52121 19.3151C1.72907 18.8797 1.07439 18.2275 0.632196 17.4334C0.190005 16.6394 -0.0218019 15.7355 0.0210491 14.8253C0.049283 14.1474 0.219913 13.4832 0.521613 12.877C0.823313 12.2707 1.24918 11.7362 1.77096 11.309C0.740386 10.2368 0.114205 8.83374 0.0012491 7.34356C-0.0191425 6.41707 0.210472 5.50246 0.665465 4.6978C1.12046 3.89315 1.78367 3.22882 2.58396 2.77606C3.38425 2.32329 4.29143 2.09918 5.2082 2.12776C6.12498 2.15634 7.01676 2.43654 7.7879 2.93829C8.41419 3.33461 8.95211 3.85813 9.36754 4.47563C9.78297 5.09313 10.0668 5.79113 10.2011 6.52534C11.3436 6.97256 12.5185 7.33021 13.7153 7.59511C15.0839 7.91028 16.4787 8.09528 17.8815 8.1477C19.2899 8.20429 20.7006 8.13779 22.0977 7.94895C23.2899 7.78106 24.4723 7.54926 25.6401 7.25453C25.6822 6.41812 25.912 5.60234 26.3121 4.86885C26.7122 4.13536 27.2721 3.50337 27.9494 3.02065C28.6941 2.43505 29.5935 2.08474 30.5345 2.01368C31.4854 1.94314 32.4366 2.14637 33.2778 2.5998C34.1014 3.05038 34.7877 3.71969 35.2624 4.53549C35.7372 5.35129 35.9824 6.28259 35.9716 7.2289C35.9483 8.12826 35.6867 9.00485 35.2142 9.76738C34.901 10.2376 34.5337 10.6686 34.12 11.0513C34.5485 11.3679 34.9197 11.757 35.2169 12.2014C35.4618 12.5837 35.6578 12.9958 35.8003 13.4279C35.8727 13.6526 35.9236 13.8839 35.9523 14.1184L36 14.4902L35.9751 14.7637ZM32.8785 18.6079C33.5627 18.2378 34.1338 17.6858 34.53 17.0115C34.9261 16.3372 35.1323 15.5663 35.1263 14.7822C35.1346 14.7008 35.1348 14.6187 35.1268 14.5372L35.083 14.239C35.061 14.0539 35.0194 13.8717 34.9589 13.6955C34.853 13.3437 34.7001 13.0081 34.5044 12.698C34.1811 12.1908 33.7262 11.7829 33.1893 11.5189C33.1092 11.4915 33.0385 11.4415 32.9857 11.3748C32.9328 11.3081 32.9 11.2275 32.891 11.1425C32.8856 11.0639 32.9012 10.9854 32.9362 10.915C32.9712 10.8447 33.0243 10.7852 33.09 10.7427C33.6201 10.3541 34.0781 9.87402 34.4431 9.32457C34.8296 8.70374 35.0421 7.98863 35.0581 7.25542C35.0746 6.47029 34.8771 5.6957 34.4872 5.01633C34.0973 4.33696 33.5301 3.77897 32.8475 3.40336C32.1589 3.03109 31.3804 2.86232 30.6012 2.91638C29.8328 2.9765 29.098 3.25992 28.4854 3.73246C27.299 4.67316 26.2849 6.28402 26.6015 7.51808C26.6175 7.59578 26.6135 7.6763 26.59 7.75201C26.5665 7.82771 26.5242 7.8961 26.4672 7.95067C26.3798 8.02488 26.2698 8.06645 26.1557 8.0684C24.8738 8.41088 23.5718 8.67119 22.2574 8.84778C20.7911 9.05123 19.3098 9.12304 17.8309 9.06238C16.3778 9.00466 14.9332 8.81136 13.5153 8.48495C12.1929 8.19252 10.895 7.79634 9.63353 7.3C9.56254 7.26952 9.50046 7.22118 9.45319 7.1596C9.40592 7.09801 9.37504 7.02523 9.36349 6.94818C9.27422 6.29263 9.04499 5.66453 8.69168 5.10735C8.33836 4.55018 7.86941 4.07726 7.31729 3.72133L6.94584 3.53263C6.30552 3.20757 5.59332 3.05408 4.87746 3.08688C4.1616 3.11968 3.46607 3.33766 2.8575 3.71994C2.24894 4.10222 1.74773 4.63599 1.40189 5.27011C1.05606 5.90424 0.877189 6.61747 0.882419 7.34147C0.936409 8.0403 1.13052 8.72074 1.45296 9.3414C1.7754 9.96206 2.21941 10.51 2.75801 10.9518C2.8297 10.9897 2.88974 11.0467 2.93163 11.1166C2.97352 11.1866 2.99564 11.2668 2.99561 11.3485C3.00439 11.4306 2.98952 11.5136 2.95279 11.5874C2.91606 11.6612 2.85903 11.7227 2.78854 11.7646C2.23409 12.0799 1.77179 12.5374 1.44836 13.0909C1.12492 13.6445 0.951798 14.2745 0.946472 14.9173C0.924315 15.6463 1.10404 16.3672 1.46542 16.9986C1.8268 17.63 2.35547 18.147 2.99191 18.4913C3.64361 18.884 4.39033 19.0864 5.14906 19.0761C5.92964 19.055 6.69056 18.8241 7.35346 18.4072C7.90504 18.049 8.37289 17.5739 8.72451 17.0147C9.07614 16.4556 9.30313 15.8258 9.38974 15.1692C9.3993 15.0908 9.43009 15.0165 9.47872 14.9547C9.52736 14.8928 9.59194 14.8457 9.66537 14.8186C10.9224 14.3062 12.22 13.902 13.5444 13.6103C14.9682 13.2819 16.4193 13.0883 17.8787 13.0321C19.3416 12.9634 20.8075 13.0241 22.2599 13.2135C23.2889 13.3949 24.2943 13.6931 25.2571 14.1024C25.7943 14.3037 26.3072 14.4927 26.7717 14.6367C26.8693 14.6636 26.9545 14.7241 27.0126 14.8078C27.0708 14.8914 27.0981 14.993 27.09 15.0949C27.0571 15.7044 27.1721 16.3129 27.4252 16.8673C27.6783 17.4217 28.0618 17.9051 28.5421 18.2754C29.1597 18.7398 29.895 19.0175 30.6626 19.0764C31.4303 19.1352 32.1987 18.9728 32.8785 18.6079Z" fill="#FDCA40"/>
</svg>
