<svg width="38" height="38" viewBox="0 0 38 38" fill="none" xmlns="http://www.w3.org/2000/svg">
<circle cx="19" cy="19" r="19" fill="#FDCA40"/>
<path d="M18.9093 25.162C17.4933 25.162 16.3953 24.784 15.6153 24.028C14.8353 23.26 14.4333 22.174 14.4093 20.77H16.6773C16.7013 21.598 16.8993 22.204 17.2713 22.588C17.6433 22.96 18.1893 23.146 18.9093 23.146C19.6533 23.146 20.2113 22.978 20.5833 22.642C20.9553 22.294 21.1413 21.832 21.1413 21.256C21.1413 20.74 20.9613 20.314 20.6013 19.978C20.2533 19.642 19.7313 19.474 19.0353 19.474H17.3793V17.566H19.0353C19.6113 17.566 20.0613 17.416 20.3853 17.116C20.7093 16.816 20.8713 16.426 20.8713 15.946C20.8713 15.442 20.7033 15.034 20.3673 14.722C20.0433 14.41 19.5573 14.254 18.9093 14.254C17.7093 14.254 17.0553 14.926 16.9473 16.27H14.6793C14.7033 15.01 15.0813 14.026 15.8133 13.318C16.5573 12.598 17.5893 12.238 18.9093 12.238C19.6053 12.238 20.2173 12.328 20.7453 12.508C21.2733 12.676 21.7113 12.916 22.0593 13.228C22.4193 13.54 22.6893 13.918 22.8693 14.362C23.0493 14.794 23.1393 15.274 23.1393 15.802C23.1393 16.378 23.0133 16.9 22.7613 17.368C22.5093 17.836 22.1193 18.214 21.5913 18.502C22.2033 18.802 22.6593 19.21 22.9593 19.726C23.2593 20.23 23.4093 20.794 23.4093 21.418C23.4093 21.97 23.3133 22.48 23.1213 22.948C22.9293 23.404 22.6413 23.8 22.2573 24.136C21.8853 24.46 21.4173 24.712 20.8533 24.892C20.3013 25.072 19.6533 25.162 18.9093 25.162Z" fill="#015FFF"/>
</svg>
