<svg width="38" height="38" viewBox="0 0 38 38" fill="none" xmlns="http://www.w3.org/2000/svg">
<circle cx="19" cy="19" r="19" fill="#FDCA40"/>
<path d="M14.6818 23.092L18.7498 19.186C19.1458 18.802 19.4818 18.466 19.7578 18.178C20.0338 17.89 20.2498 17.626 20.4058 17.386C20.5738 17.146 20.6938 16.924 20.7658 16.72C20.8378 16.516 20.8738 16.306 20.8738 16.09C20.8738 15.538 20.6998 15.094 20.3518 14.758C20.0038 14.422 19.5238 14.254 18.9118 14.254C18.2998 14.254 17.8198 14.428 17.4718 14.776C17.1238 15.124 16.9498 15.622 16.9498 16.27H14.6818C14.6818 15.658 14.7778 15.106 14.9698 14.614C15.1618 14.11 15.4378 13.684 15.7978 13.336C16.1698 12.988 16.6138 12.718 17.1298 12.526C17.6578 12.334 18.2518 12.238 18.9118 12.238C19.5718 12.238 20.1598 12.334 20.6758 12.526C21.2038 12.706 21.6478 12.97 22.0078 13.318C22.3798 13.654 22.6618 14.062 22.8538 14.542C23.0458 15.01 23.1418 15.526 23.1418 16.09C23.1418 16.798 22.9138 17.494 22.4578 18.178C22.0018 18.862 21.2938 19.642 20.3338 20.518L17.5078 23.092H23.1418V25H14.6818V23.092Z" fill="#015FFF"/>
</svg>
